<?xml version="1.0" encoding="utf-8"?>
<!-- Generator: Adobe Illustrator 24.3.0, SVG Export Plug-In . SVG Version: 6.00 Build 0)  -->
<svg version="1.1" id="Слой_1" xmlns="http://www.w3.org/2000/svg" xmlns:xlink="http://www.w3.org/1999/xlink" x="0px" y="0px"
	 viewBox="0 0 1000 1000" style="enable-background:new 0 0 1000 1000;" xml:space="preserve">
<style type="text/css">
	.st0{fill:#F8AE3D;}
	.st1{fill:none;stroke:#FFFFFF;stroke-width:30;stroke-linecap:round;stroke-miterlimit:10;}
	.st2{fill:#FFFFFF;}
	.st3{fill:none;stroke:#FFFFFF;stroke-width:24;stroke-linecap:round;stroke-miterlimit:10;}
</style>
<circle class="st0" cx="502.07" cy="517.69" r="446.89"/>
<polyline class="st1" points="318.17,347.71 388.41,347.71 396.15,393.34 "/>
<path class="st1" d="M605.35,393c30.95-0.08,52.97-0.16,53.84-0.23c9.04-0.76-50.9,152.97-50.9,152.97H422l-25.85-152.4
	c0,0,29.78-0.04,69.3-0.09c17.55-0.03,37.01-0.06,56.65-0.09C551.43,393.11,581.13,393.06,605.35,393"/>
<path class="st1" d="M608.29,628.75H424.04c0,0-37.55,2.28-39.7-30.83c-2.8-42.98,11.2-52.17,37.67-52.17"/>
<circle class="st2" cx="447.16" cy="697.56" r="22.68"/>
<circle class="st2" cx="577.7" cy="697.56" r="22.68"/>
<path class="st3" d="M605.35,341.36v51.65c-24.22,0.06-53.92,0.11-83.25,0.16v-51.81c0-5.45,4.42-9.87,9.88-9.87h63.49
	C600.92,331.49,605.35,335.91,605.35,341.36z"/>
<path class="st3" d="M522.1,365.3v28.89c-19.64,0.03-39.1,0.06-56.65,0.09V365.3c0-5.45,4.42-9.87,9.87-9.87h36.9
	C517.68,355.43,522.1,359.85,522.1,365.3z"/>
</svg>
